<svg width="1920" height="422" viewBox="0 0 1920 422" fill="none" xmlns="http://www.w3.org/2000/svg">
<rect width="1920" height="422" fill="#F9FDFF"/>
<mask id="mask0_55745_11143" style="mask-type:alpha" maskUnits="userSpaceOnUse" x="0" y="0" width="1920" height="422">
<rect opacity="0.04" width="1920" height="422" fill="#F9FDFF"/>
</mask>
<g mask="url(#mask0_55745_11143)">
<path d="M2006.36 122.056H1596.69C1616.23 108.821 1631.99 89.9127 1640.81 66.593C1659.09 20.5839 1647.11 -31.0975 1610.56 -65.1316C1609.93 -65.7619 1609.3 -66.3922 1608.67 -66.3922L919.163 -651.275C873.784 -692.242 803.825 -692.242 758.446 -651.275L68.3096 -66.3922C67.6794 -65.762 67.0492 -65.1316 66.4189 -65.1316C29.8638 -31.7277 18.519 19.9537 36.1663 66.593C54.4439 112.602 97.932 142.855 147.723 142.855H157.177V827.949C157.177 856.311 179.866 879 208.228 879H1170.64H1466.23H2006.36C2093.34 879 2164.56 808.411 2164.56 720.805V280.252C2164.56 193.276 2093.34 122.056 2006.36 122.056ZM563.065 469.961V776.898H259.279V91.8035C259.279 63.4417 236.59 40.7523 208.228 40.7523H148.353C137.638 40.7523 133.227 33.8195 131.966 29.4077C130.706 24.9958 128.815 17.4327 135.748 10.4998L824.623 -573.753C825.254 -574.383 825.884 -575.013 826.514 -575.013C833.447 -581.316 844.161 -581.316 850.464 -575.013C851.094 -574.383 851.725 -573.753 852.355 -573.753L1541.86 10.4998C1548.79 17.4327 1547.53 25.6261 1545.64 29.4077C1543.75 33.8195 1539.34 40.7523 1529.26 40.7523H1466.23C1437.87 40.7523 1415.18 63.4417 1415.18 91.8035V122.056H1170.64C1093.11 122.056 1028.2 178.149 1014.96 252.52C962.651 209.032 897.103 186.343 828.405 188.864C682.184 193.906 563.065 319.958 563.065 469.961ZM1012.44 776.898H664.537V469.961C664.537 374.161 739.538 294.117 832.187 290.966C880.086 289.075 924.835 306.723 959.499 339.496C993.533 372.27 1012.44 417.018 1012.44 464.288V720.805V776.898ZM2062.46 720.805C2062.46 751.687 2037.25 776.898 2006.36 776.898H1517.28H1170.64C1139.75 776.898 1114.54 751.687 1114.54 720.805V464.288V441.599H1415.81H1517.91H2063.09V720.805H2062.46ZM2062.46 323.74H1517.28H1415.18H1114.54V280.252C1114.54 249.369 1139.75 224.159 1170.64 224.159H1415.18H1517.28H2006.36C2037.25 224.159 2062.46 249.369 2062.46 280.252V323.74Z" fill="#0099FF"/>
</g>
</svg>
