<svg width="135" height="43" viewBox="0 0 135 43" fill="none" xmlns="http://www.w3.org/2000/svg">
<rect x="0.5" y="0.5" width="134" height="42" rx="5.5" fill="#FDFDFD"/>
<rect x="0.5" y="0.5" width="134" height="42" rx="5.5" stroke="#F5F5F5"/>
<path d="M23.8051 21.4617L14.0898 32.0059C14.0908 32.0078 14.0908 32.0106 14.0917 32.0125C14.3901 33.1574 15.412 34 16.6256 34C17.1111 34 17.5664 33.8656 17.957 33.6305L17.988 33.6118L28.9232 27.1593L23.8051 21.4617Z" fill="#EA4335"/>
<path d="M33.6332 19.6662L33.624 19.6597L28.9029 16.8612L23.584 21.7013L28.922 27.1582L33.6177 24.3878C34.4407 23.9324 35.0001 23.045 35.0001 22.0223C35.0001 21.0052 34.4489 20.1225 33.6332 19.6662Z" fill="#FBBC04"/>
<path d="M14.0894 11.9932C14.031 12.2135 14 12.4449 14 12.6838V31.3163C14 31.5552 14.031 31.7866 14.0903 32.0059L24.1386 21.7313L14.0894 11.9932Z" fill="#4285F4"/>
<path d="M23.8762 22L28.904 16.8594L17.9815 10.3836C17.5846 10.1401 17.1211 10.0001 16.6256 10.0001C15.412 10.0001 14.3882 10.8446 14.0898 11.9904C14.0898 11.9914 14.0889 11.9923 14.0889 11.9932L23.8762 22Z" fill="#34A853"/>
<path d="M100.518 25.4097H102.147V14.3981H100.518V25.4097ZM115.189 18.3646L113.322 23.1388H113.266L111.328 18.3646H109.573L112.479 25.0371L110.823 28.749H112.521L117 18.3646H115.189ZM105.952 24.1588C105.418 24.1588 104.674 23.8902 104.674 23.2234C104.674 22.3742 105.6 22.0483 106.401 22.0483C107.116 22.0483 107.454 22.2042 107.889 22.4165C107.762 23.4365 106.892 24.1588 105.952 24.1588ZM106.148 18.1241C104.969 18.1241 103.747 18.6482 103.242 19.8101L104.688 20.4188C104.997 19.8101 105.572 19.611 106.176 19.611C107.019 19.611 107.875 20.121 107.889 21.0283V21.1411C107.594 20.971 106.963 20.7165 106.19 20.7165C104.632 20.7165 103.045 21.5806 103.045 23.1952C103.045 24.6689 104.323 25.6184 105.755 25.6184C106.85 25.6184 107.454 25.1225 107.833 24.5411H107.889V25.3912H109.461V21.1692C109.461 19.2146 108.015 18.1241 106.148 18.1241M96.0821 19.7053H93.7655V15.9308H96.0821C97.2998 15.9308 97.9911 16.9482 97.9911 17.8176C97.9911 18.6711 97.2998 19.7053 96.0821 19.7053ZM96.0402 14.3981H92.1375V25.4097H93.7655V21.2379H96.0402C97.8453 21.2379 99.6199 19.9184 99.6199 17.8176C99.6199 15.7168 97.8453 14.3981 96.0402 14.3981M74.7583 24.1606C73.6332 24.1606 72.6913 23.2102 72.6913 21.9047C72.6913 20.5852 73.6332 19.6198 74.7583 19.6198C75.8695 19.6198 76.7406 20.5852 76.7406 21.9047C76.7406 23.2102 75.8695 24.1606 74.7583 24.1606ZM76.6289 18.9812H76.5722C76.2064 18.5417 75.5038 18.1444 74.6178 18.1444C72.7611 18.1444 71.0599 19.7898 71.0599 21.9047C71.0599 24.0047 72.7611 25.6369 74.6178 25.6369C75.5038 25.6369 76.2064 25.2396 76.5722 24.7851H76.6289V25.3251C76.6289 26.7582 75.8695 27.5246 74.6457 27.5246C73.6471 27.5246 73.0282 26.8005 72.7751 26.1901L71.3549 26.7864C71.7626 27.78 72.8458 29 74.6457 29C76.5582 29 78.1757 27.8646 78.1757 25.0978V18.3708H76.6289V18.9812ZM79.3008 25.4097H80.9322V14.3973H79.3008V25.4097ZM83.3362 21.777C83.2943 20.3298 84.4474 19.5916 85.2766 19.5916C85.9243 19.5916 86.4725 19.9176 86.6549 20.3862L83.3362 21.777ZM88.3989 20.528C88.0899 19.6912 87.1472 18.1444 85.2208 18.1444C83.3083 18.1444 81.7196 19.6621 81.7196 21.8907C81.7196 23.9906 83.2943 25.6369 85.4032 25.6369C87.1053 25.6369 88.0899 24.5869 88.4976 23.9765L87.2319 23.1247C86.8103 23.7493 86.2333 24.1606 85.4032 24.1606C84.5739 24.1606 83.983 23.7774 83.6033 23.0261L88.5674 20.9534L88.3989 20.528ZM48.8501 19.2939V20.883H52.6184C52.5058 21.777 52.2107 22.4297 51.7612 22.8834C51.2121 23.4374 50.3541 24.0479 48.8501 24.0479C46.5291 24.0479 44.7152 22.1602 44.7152 19.8189C44.7152 17.4767 46.5291 15.5899 48.8501 15.5899C50.1018 15.5899 51.0157 16.0867 51.6905 16.7254L52.8017 15.604C51.8589 14.6959 50.6081 14 48.8501 14C45.6719 14 43 16.6117 43 19.8189C43 23.0261 45.6719 25.6369 48.8501 25.6369C50.5653 25.6369 51.8589 25.0688 52.8715 24.0047C53.9129 22.9547 54.2358 21.4793 54.2358 20.2866C54.2358 19.9176 54.2079 19.5775 54.1512 19.2939H48.8501ZM58.5208 24.1606C57.3957 24.1606 56.425 23.2243 56.425 21.8907C56.425 20.5421 57.3957 19.6198 58.5208 19.6198C59.6451 19.6198 60.6158 20.5421 60.6158 21.8907C60.6158 23.2243 59.6451 24.1606 58.5208 24.1606ZM58.5208 18.1444C56.4669 18.1444 54.7936 19.7194 54.7936 21.8907C54.7936 24.0479 56.4669 25.6369 58.5208 25.6369C60.5739 25.6369 62.2472 24.0479 62.2472 21.8907C62.2472 19.7194 60.5739 18.1444 58.5208 18.1444ZM66.65 24.1606C65.5249 24.1606 64.5542 23.2243 64.5542 21.8907C64.5542 20.5421 65.5249 19.6198 66.65 19.6198C67.7752 19.6198 68.745 20.5421 68.745 21.8907C68.745 23.2243 67.7752 24.1606 66.65 24.1606ZM66.65 18.1444C64.597 18.1444 62.9237 19.7194 62.9237 21.8907C62.9237 24.0479 64.597 25.6369 66.65 25.6369C68.7031 25.6369 70.3764 24.0479 70.3764 21.8907C70.3764 19.7194 68.7031 18.1444 66.65 18.1444Z" fill="black"/>
</svg>
