<svg width="134" height="43" viewBox="0 0 134 43" fill="none" xmlns="http://www.w3.org/2000/svg">
<rect x="0.5" y="0.5" width="133" height="42" rx="5.5" fill="#FDFDFD"/>
<rect x="0.5" y="0.5" width="133" height="42" rx="5.5" stroke="#F5F5F5"/>
<path d="M30.7045 20.763C30.7166 19.8431 30.9669 18.9411 31.4321 18.141C31.8972 17.3409 32.5621 16.6687 33.3648 16.1869C32.8548 15.4758 32.1821 14.8907 31.4 14.4779C30.6178 14.065 29.7479 13.836 28.8592 13.8088C26.9635 13.6146 25.1258 14.9163 24.1598 14.9163C23.1751 14.9163 21.6878 13.8281 20.0862 13.8603C19.0502 13.893 18.0406 14.1871 17.1557 14.714C16.2708 15.2408 15.5407 15.9825 15.0367 16.8668C12.8535 20.5571 14.482 25.9808 16.5734 28.9639C17.6197 30.4246 18.8426 32.0562 20.4428 31.9984C22.0086 31.9349 22.5934 31.0235 24.4835 31.0235C26.3561 31.0235 26.9048 31.9984 28.5374 31.9616C30.2176 31.9349 31.2762 30.4944 32.2859 29.0198C33.0377 27.979 33.6162 26.8287 34 25.6115C33.0238 25.2084 32.1908 24.5337 31.6048 23.6715C31.0187 22.8093 30.7056 21.7977 30.7045 20.763Z" fill="black"/>
<path d="M27.621 11.8471C28.5372 10.7734 28.9885 9.39335 28.8792 8C27.4796 8.14352 26.1867 8.7966 25.2582 9.82911C24.8043 10.3335 24.4566 10.9203 24.235 11.556C24.0135 12.1917 23.9224 12.8638 23.9671 13.5338C24.6672 13.5408 25.3597 13.3927 25.9927 13.1005C26.6256 12.8084 27.1824 12.3798 27.621 11.8471Z" fill="black"/>
<path d="M44.2061 28H42.1758L46.3066 16.0029H48.5391L52.6611 28H50.5518L49.4883 24.6777H45.2783L44.2061 28ZM47.4316 18.0771H47.3525L45.7266 23.1484H49.04L47.4316 18.0771ZM58.2644 28.1318C57.0603 28.1318 56.1462 27.5605 55.654 26.708H55.5837V31.085H53.6325V18.71H55.531V20.0723H55.6013C56.1111 19.1846 57.0603 18.5869 58.3083 18.5869C60.3913 18.5869 61.8767 20.1602 61.8767 22.9375V23.7637C61.8767 26.5234 60.4089 28.1318 58.2644 28.1318ZM57.8161 26.5234C59.0554 26.5234 59.8991 25.5303 59.8991 23.6582V23.0078C59.8991 21.2061 59.1081 20.1777 57.781 20.1777C56.4187 20.1777 55.5661 21.2852 55.5661 22.999V23.6582C55.5661 25.416 56.4275 26.5234 57.8161 26.5234ZM68.183 28.1318C66.9789 28.1318 66.0649 27.5605 65.5727 26.708H65.5024V31.085H63.5512V18.71H65.4496V20.0723H65.52C66.0297 19.1846 66.9789 18.5869 68.227 18.5869C70.31 18.5869 71.7954 20.1602 71.7954 22.9375V23.7637C71.7954 26.5234 70.3276 28.1318 68.183 28.1318ZM67.7348 26.5234C68.9741 26.5234 69.8178 25.5303 69.8178 23.6582V23.0078C69.8178 21.2061 69.0268 20.1777 67.6996 20.1777C66.3373 20.1777 65.4848 21.2852 65.4848 22.999V23.6582C65.4848 25.416 66.3461 26.5234 67.7348 26.5234ZM75.8387 24.6689H77.7899C77.8778 25.7061 78.7919 26.5938 80.4882 26.5938C82.0438 26.5938 82.9667 25.8643 82.9667 24.7305C82.9667 23.8164 82.3514 23.3242 81.0682 23.0166L79.0995 22.5244C77.5526 22.1641 76.1639 21.2412 76.1639 19.29C76.1639 16.9961 78.1679 15.7393 80.497 15.7393C82.8261 15.7393 84.7684 16.9961 84.8124 19.2373H82.8964C82.8085 18.2178 82.0262 17.374 80.4706 17.374C79.0995 17.374 78.1679 18.0244 78.1679 19.1406C78.1679 19.9229 78.7128 20.4854 79.829 20.7402L81.7889 21.2236C83.5907 21.6631 84.9618 22.5156 84.9618 24.5547C84.9618 26.9102 83.0546 28.2373 80.3387 28.2373C76.9989 28.2373 75.8827 26.2861 75.8387 24.6689ZM87.3395 18.71V16.4512H89.2555V18.71H91.066V20.2744H89.2555V25.2314C89.2555 26.2422 89.6334 26.5234 90.6793 26.5234C90.8463 26.5234 91.0045 26.5234 91.1188 26.5059V28C90.9605 28.0264 90.5914 28.0615 90.1959 28.0615C87.9371 28.0615 87.3131 27.2529 87.3131 25.3896V20.2744H86.0299V18.71H87.3395ZM96.3353 18.5518C99.0071 18.5518 100.457 20.4326 100.457 22.9639V23.7109C100.457 26.3301 99.0159 28.1582 96.3353 28.1582C93.6546 28.1582 92.1956 26.3301 92.1956 23.7109V22.9639C92.1956 20.4414 93.6634 18.5518 96.3353 18.5518ZM96.3353 20.1162C94.8851 20.1162 94.1644 21.3027 94.1644 22.9902V23.7021C94.1644 25.3633 94.8763 26.585 96.3353 26.585C97.7943 26.585 98.4974 25.3721 98.4974 23.7021V22.9902C98.4974 21.2939 97.7855 20.1162 96.3353 20.1162ZM102.106 28V18.71H104.057V19.9316H104.127C104.364 19.3516 105.059 18.5781 106.351 18.5781C106.606 18.5781 106.825 18.5957 107.01 18.6309V20.3535C106.843 20.3096 106.5 20.2832 106.175 20.2832C104.61 20.2832 104.083 21.25 104.083 22.498V28H102.106ZM111.743 28.1582C109.256 28.1582 107.674 26.5146 107.674 23.7637V22.8232C107.674 20.2305 109.22 18.5518 111.664 18.5518C114.142 18.5518 115.636 20.292 115.636 22.9111V23.7988H109.598V24.0186C109.598 25.583 110.442 26.6201 111.769 26.6201C112.762 26.6201 113.439 26.1279 113.677 25.3281H115.531C115.25 26.8311 114.037 28.1582 111.743 28.1582ZM109.598 22.4365H113.729V22.4189C113.729 21.1006 112.912 20.0635 111.673 20.0635C110.416 20.0635 109.598 21.1006 109.598 22.4189V22.4365Z" fill="black"/>
</svg>
