<svg width="136" height="25" viewBox="0 0 136 25" fill="none" xmlns="http://www.w3.org/2000/svg">
<path d="M31.1865 12.675H24.7286C25.0365 12.4663 25.2849 12.1683 25.424 11.8007C25.7121 11.0754 25.5234 10.2607 24.9471 9.72418C24.9372 9.71425 24.9273 9.70431 24.9173 9.70431L14.0481 0.484346C13.3328 -0.161449 12.2299 -0.161449 11.5146 0.484346L0.635433 9.70431C0.625497 9.71424 0.615563 9.72418 0.605628 9.72418C0.0293801 10.2508 -0.149457 11.0654 0.128731 11.8007C0.416855 12.5259 1.10239 13.0028 1.88728 13.0028H2.03631V23.8025C2.03631 24.2496 2.39398 24.6073 2.84107 24.6073H18.0123H22.6719H31.1865C32.5576 24.6073 33.6803 23.4945 33.6803 22.1135V15.1687C33.6803 13.7977 32.5576 12.675 31.1865 12.675ZM8.43465 18.1593V22.9977H3.64583V12.1981C3.64583 11.751 3.28816 11.3933 2.84107 11.3933H1.89722C1.72832 11.3933 1.65877 11.284 1.6389 11.2145C1.61903 11.1449 1.58922 11.0257 1.69851 10.9164L12.5578 1.70639C12.5677 1.69645 12.5777 1.68652 12.5876 1.68652C12.6969 1.58717 12.8658 1.58717 12.9651 1.68652C12.9751 1.69645 12.985 1.70639 12.995 1.70639L23.8642 10.9164C23.9735 11.0257 23.9536 11.1549 23.9238 11.2145C23.894 11.284 23.8244 11.3933 23.6655 11.3933H22.6719C22.2249 11.3933 21.8672 11.751 21.8672 12.1981V12.675H18.0123C16.7902 12.675 15.7669 13.5592 15.5583 14.7316C14.7336 14.046 13.7004 13.6884 12.6174 13.7281C10.3124 13.8076 8.43465 15.7947 8.43465 18.1593ZM15.5185 22.9977H10.0342V18.1593C10.0342 16.6491 11.2165 15.3873 12.677 15.3376C13.4321 15.3078 14.1375 15.586 14.684 16.1026C15.2205 16.6193 15.5185 17.3247 15.5185 18.0698V22.1135V22.9977ZM32.0707 22.1135C32.0707 22.6003 31.6733 22.9977 31.1865 22.9977H23.4767H18.0123C17.5255 22.9977 17.128 22.6003 17.128 22.1135V18.0698V17.7122H21.8771H23.4866H32.0807V22.1135H32.0707ZM32.0707 15.8543H23.4767H21.8672H17.128V15.1687C17.128 14.6819 17.5255 14.2845 18.0123 14.2845H21.8672H23.4767H31.1865C31.6733 14.2845 32.0707 14.6819 32.0707 15.1687V15.8543Z" fill="#0099FF"/>
<path d="M28.7429 22.3022C29.0509 22.3022 29.3192 22.1731 29.5079 21.9644C29.6967 22.1731 29.9749 22.3022 30.2729 22.3022C30.8492 22.3022 31.3162 21.8353 31.3162 21.259C31.3162 20.6828 30.8492 20.2158 30.2729 20.2158C29.965 20.2158 29.6967 20.345 29.5079 20.5536C29.3192 20.345 29.041 20.2158 28.7429 20.2158C28.1667 20.2158 27.6997 20.6828 27.6997 21.259C27.6997 21.8353 28.1667 22.3022 28.7429 22.3022Z" fill="#0099FF"/>
<path d="M51.2153 9.69995H45.8626V12.3898C47.2121 12.3808 48.4212 12.3355 49.4899 12.254C50.5677 12.1634 51.6772 12.0185 52.8184 11.8193L53.1444 14.5363C51.8402 14.7899 50.5451 14.953 49.259 15.0254C47.9729 15.0979 46.2883 15.1341 44.2052 15.1341H42.4935V7.20024H47.8733V4.53751H42.4663V1.84761H51.2153V9.69995ZM62.7357 18.6119H59.448V0.0271707H62.7357V18.6119ZM57.6819 18.0142H54.4214V9.02068H52.1391V6.19492H54.4214V0.434732H57.6819V18.0142ZM63.3606 24.2906H45.9713V16.7372H49.4492V21.5192H63.3606V24.2906Z" fill="#0099FF"/>
<path d="M78.6979 3.72239H70.5195V5.27112H78.1817V7.87951H70.5195V9.59126C72.6751 9.58221 74.4638 9.54145 75.8858 9.469C77.3077 9.38748 78.7432 9.2471 80.1923 9.04785L80.4912 11.7106C78.8972 11.9551 77.285 12.1181 75.6548 12.1997C74.0246 12.2721 71.8328 12.3083 69.0795 12.3083H67.0145V0.978146H78.6979V3.72239ZM85.708 4.86356H89.05V7.66214H85.708V12.7159H82.2301V0H85.708V4.86356ZM85.708 20.3237H72.7475V21.8996H86.4144V24.5623H69.3512V17.824H82.2573V16.4111H69.2969V13.7212H85.708V20.3237Z" fill="#0099FF"/>
<path d="M112.321 24.7254H108.979V0H112.321V24.7254ZM107.322 23.557H104.034V12.091H101.643V8.99351H104.034V0.489073H107.322V23.557ZM102.214 5.59717H100.638V15.8813C101.507 15.7998 102.168 15.7228 102.621 15.6503L102.866 18.15C101.136 18.5214 99.2294 18.7704 97.1463 18.8972C95.0723 19.015 92.9575 19.0738 90.8019 19.0738L90.4215 16.2209H92.4865V5.59717H90.8835V2.79858H102.214V5.59717ZM97.4859 16.0851V5.59717H95.5568V16.1666L97.4859 16.0851Z" fill="#0099FF"/>
<path d="M136 24.7797H132.495V0H136V24.7797ZM122.578 1.73893C123.818 1.73893 124.928 2.1012 125.906 2.82576C126.893 3.55031 127.668 4.57827 128.229 5.90963C128.791 7.241 129.071 8.7852 129.071 10.5422C129.071 12.3174 128.791 13.8752 128.229 15.2156C127.668 16.547 126.893 17.5749 125.906 18.2995C124.928 19.015 123.818 19.3727 122.578 19.3727C121.31 19.3727 120.177 19.015 119.181 18.2995C118.185 17.5749 117.406 16.547 116.845 15.2156C116.292 13.8752 116.02 12.3174 116.029 10.5422C116.02 8.7852 116.292 7.241 116.845 5.90963C117.406 4.57827 118.185 3.55031 119.181 2.82576C120.177 2.1012 121.31 1.73893 122.578 1.73893ZM122.578 4.86356C121.935 4.86356 121.368 5.08545 120.879 5.52924C120.399 5.96397 120.028 6.60701 119.765 7.45836C119.503 8.30971 119.371 9.33767 119.371 10.5422C119.371 11.7559 119.503 12.7884 119.765 13.6397C120.028 14.4911 120.399 15.1341 120.879 15.5688C121.368 16.0036 121.935 16.2209 122.578 16.2209C123.212 16.2209 123.764 16.0036 124.235 15.5688C124.706 15.125 125.073 14.4775 125.335 13.6261C125.598 12.7748 125.729 11.7468 125.729 10.5422C125.729 9.34673 125.598 8.3233 125.335 7.47195C125.073 6.61154 124.701 5.96397 124.221 5.52924C123.75 5.08545 123.202 4.86356 122.578 4.86356Z" fill="#0099FF"/>
</svg>
