<svg width="1919" height="1109" viewBox="0 0 1919 1109" fill="none" xmlns="http://www.w3.org/2000/svg">
<rect x="-1" width="1920" height="1109" fill="#F7F7F7"/>
<mask id="mask0_55741_11131" style="mask-type:alpha" maskUnits="userSpaceOnUse" x="-1" y="0" width="1920" height="1109">
<rect x="-1" width="1920" height="1109" fill="#F7F7F7"/>
</mask>
<g mask="url(#mask0_55741_11131)">
<g opacity="0.05">
<path d="M-23.8062 68.4824H1993" stroke="black" stroke-miterlimit="10"/>
<path d="M-23.8062 180.113H1993" stroke="black" stroke-miterlimit="10"/>
<path d="M-23.8062 291.744H1993" stroke="black" stroke-miterlimit="10"/>
<path d="M-23.8062 403.377H1993" stroke="black" stroke-miterlimit="10"/>
<path d="M-23.8062 514.986H1993" stroke="black" stroke-miterlimit="10"/>
<path d="M-23.8062 626.617H1993" stroke="black" stroke-miterlimit="10"/>
<path d="M-23.8062 738.25H1993" stroke="black" stroke-miterlimit="10"/>
<path d="M-23.8062 849.881H1993" stroke="black" stroke-miterlimit="10"/>
<path d="M-23.8062 961.512H1993" stroke="black" stroke-miterlimit="10"/>
<path d="M-23.8062 1073.14H1993" stroke="black" stroke-miterlimit="10"/>
<path d="M623.386 -288V1263" stroke="black" stroke-miterlimit="10"/>
<path d="M511.829 -288V1263" stroke="black" stroke-miterlimit="10"/>
<path d="M734.942 -288V1263" stroke="black" stroke-miterlimit="10"/>
<path d="M846.499 -288V1263" stroke="black" stroke-miterlimit="10"/>
<path d="M958.035 -288V1263" stroke="black" stroke-miterlimit="10"/>
<path d="M1069.59 -288V1263" stroke="black" stroke-miterlimit="10"/>
<path d="M1181.15 -288V1263" stroke="black" stroke-miterlimit="10"/>
<path d="M1292.71 -288V1263" stroke="black" stroke-miterlimit="10"/>
<path d="M1404.26 -288V1263" stroke="black" stroke-miterlimit="10"/>
<path d="M1515.82 -288V1263" stroke="black" stroke-miterlimit="10"/>
<path d="M1627.35 -288V1263" stroke="black" stroke-miterlimit="10"/>
<path d="M1738.91 -288V1263" stroke="black" stroke-miterlimit="10"/>
<path d="M1850.47 -288V1263" stroke="black" stroke-miterlimit="10"/>
<path d="M400.272 -288V1263" stroke="black" stroke-miterlimit="10"/>
<path d="M288.715 -288V1263" stroke="black" stroke-miterlimit="10"/>
<path d="M177.18 -288V1263" stroke="black" stroke-miterlimit="10"/>
<path d="M65.6226 -288V1263" stroke="black" stroke-miterlimit="10"/>
</g>
</g>
</svg>
