<svg width="16" height="11" viewBox="0 0 16 11" fill="none" xmlns="http://www.w3.org/2000/svg">
<g clip-path="url(#clip0_55773_738)">
<path d="M15.19 6.15039H0.75C0.34 6.15039 0 5.81039 0 5.40039C0 4.99039 0.34 4.65039 0.75 4.65039H15.19C15.6 4.65039 15.94 4.99039 15.94 5.40039C15.94 5.81039 15.6 6.15039 15.19 6.15039Z" fill="#0099FF"/>
<path d="M10.54 10.8004C10.35 10.8004 10.16 10.7304 10.01 10.5804C9.71998 10.2904 9.71998 9.81043 10.01 9.52043L14.13 5.40043L10.01 1.28043C9.71998 0.99043 9.71998 0.51043 10.01 0.22043C10.3 -0.0695703 10.78 -0.0695703 11.07 0.22043L15.72 4.87043C15.86 5.01043 15.94 5.20043 15.94 5.40043C15.94 5.60043 15.86 5.79043 15.72 5.93043L11.07 10.5804C10.92 10.7304 10.73 10.8004 10.54 10.8004Z" fill="#0099FF"/>
</g>
<defs>
<clipPath id="clip0_55773_738">
<rect width="15.94" height="10.8" fill="white"/>
</clipPath>
</defs>
</svg>
