<svg width="41" height="30" viewBox="0 0 41 30" fill="none" xmlns="http://www.w3.org/2000/svg">
<path d="M38.0142 15.1737H30.2832C30.6519 14.9239 30.9492 14.5671 31.1157 14.127C31.4607 13.2588 31.2347 12.2835 30.5448 11.6412C30.5329 11.6293 30.521 11.6174 30.5091 11.6174L17.4972 0.579829C16.6408 -0.193276 15.3206 -0.193276 14.4642 0.579829L1.44039 11.6174C1.42849 11.6293 1.4166 11.6412 1.40471 11.6412C0.714859 12.2716 0.500767 13.2469 0.833797 14.127C1.17872 14.9953 1.9994 15.5662 2.93902 15.5662H3.11743V28.4949C3.11743 29.0301 3.54561 29.4583 4.08084 29.4583H22.2429H27.8211H38.0142C39.6556 29.4583 40.9996 28.1262 40.9996 26.4729V18.159C40.9996 16.5177 39.6556 15.1737 38.0142 15.1737ZM10.7771 21.7391V27.5315H5.04425V14.6028C5.04425 14.0675 4.61607 13.6394 4.08084 13.6394H2.95092C2.74872 13.6394 2.66546 13.5085 2.64167 13.4253C2.61789 13.342 2.58221 13.1993 2.71304 13.0685L15.7131 2.04278C15.725 2.03089 15.7369 2.01899 15.7488 2.01899C15.8796 1.90006 16.0818 1.90006 16.2007 2.01899C16.2126 2.03089 16.2245 2.04278 16.2364 2.04278L29.2484 13.0685C29.3792 13.1993 29.3554 13.3539 29.3197 13.4253C29.2841 13.5085 29.2008 13.6394 29.0105 13.6394H27.8211C27.2859 13.6394 26.8577 14.0675 26.8577 14.6028V15.1737H22.2429C20.7799 15.1737 19.5548 16.2322 19.3051 17.6357C18.3179 16.815 17.0809 16.3869 15.7845 16.4344C13.0251 16.5296 10.7771 18.9084 10.7771 21.7391ZM19.2575 27.5315H12.692V21.7391C12.692 19.9312 14.1074 18.4207 15.8558 18.3612C16.7598 18.3256 17.6042 18.6586 18.2584 19.2771C18.9007 19.8956 19.2575 20.74 19.2575 21.6321V26.4729V27.5315ZM39.0728 26.4729C39.0728 27.0557 38.597 27.5315 38.0142 27.5315H28.7845H22.2429C21.6601 27.5315 21.1843 27.0557 21.1843 26.4729V21.6321V21.2039H26.8696H28.7964H39.0847V26.4729H39.0728ZM39.0728 18.9797H28.7845H26.8577H21.1843V18.159C21.1843 17.5762 21.6601 17.1005 22.2429 17.1005H26.8577H28.7845H38.0142C38.597 17.1005 39.0728 17.5762 39.0728 18.159V18.9797Z" fill="#0099FF"/>
<path d="M35.0887 26.6989C35.4574 26.6989 35.7785 26.5443 36.0045 26.2945C36.2305 26.5443 36.5635 26.6989 36.9204 26.6989C37.6102 26.6989 38.1692 26.1399 38.1692 25.45C38.1692 24.7602 37.6102 24.2012 36.9204 24.2012C36.5517 24.2012 36.2305 24.3558 36.0045 24.6056C35.7785 24.3558 35.4455 24.2012 35.0887 24.2012C34.3989 24.2012 33.8398 24.7602 33.8398 25.45C33.8398 26.1399 34.3989 26.6989 35.0887 26.6989Z" fill="#0099FF"/>
</svg>
